<svg class="svg-canvas" viewBox="121.0365024038029 21.066031727268268 549.1969471163362 549.1969471163362" width="800" height="800" preserveAspectRatio="none" version="1.1" xmlns="http://www.w3.org/2000/svg" xmlns:xlink="http://www.w3.org/1999/xlink" >
      <!--元素-->
      
              <g id="shape_NLq3SnCS5b" ref="shape_NLq3SnCS5b" key="shape_NLq3SnCS5b" mask="">
                <g transform="translate(53.79517111724334,130.48028030752164) rotate(0,356.7834158853068,152.6553574263956) scale(1,1)" style="opacity: 1;mix-blend-mode: undefined;" filter="">
                  <!--普通元素-->
                  <svg xmlns="http://www.w3.org/2000/svg" version="1.1" xmlns:xlink="http://www.w3.org/1999/xlink" width="713.5668317706135" height="305.3107148527912" viewBox="0 0 1001.5129661532139 428.512966153214" data-ligature="true" data-parent="shape_NLq3SnCS5b"><g data-role="text" data-width="643.676748046875" data-height="71" transform="translate(178.756483076607, 178.756483076607)"><path d="M0 11.93L0-47.66L59.59-47.66L59.59-35.76L11.93-35.76L11.93-23.83L47.66-23.83L47.66-11.93L11.93-11.93L11.93 11.93L0 11.93Z" transform="translate(0 57) " fill="#FFFFFF" stroke="#FFFFFF" stroke-width="0.099" data-glyph-w="71.519638671875" data-glyph-h="67.85345703125" data-glyph-ascender="55.661948242187506" data-glyph-descender="-12.191508789062501" data-kerning="0"></path><path d="M47.66-23.83L47.66-35.76L59.59-35.76L59.59-23.83L47.66-23.83ZM59.59 0L59.59 11.93L47.66 11.93L47.66 0L59.59 0ZM35.76 0L35.76-11.93L11.93-11.93L11.93 11.93L0 11.93L0-47.66L47.66-47.66L47.66-35.76L11.93-35.76L11.93-23.83L47.66-23.83L47.66 0L35.76 0Z" transform="translate(71.519638671875 57) " fill="#FFFFFF" stroke="#FFFFFF" stroke-width="0.099" data-glyph-w="71.519638671875" data-glyph-h="67.85345703125" data-glyph-ascender="55.661948242187506" data-glyph-descender="-12.191508789062501" data-kerning="0"></path><path d="M0 0L0-35.76L11.93-35.76L11.93 0L0 0ZM11.93-47.66L47.66-47.66L47.66-35.76L11.93-35.76L11.93-47.66ZM47.66 11.93L11.93 11.93L11.93 0L47.66 0L47.66 11.93ZM47.66 0L47.66-35.76L59.59-35.76L59.59 0L47.66 0Z" transform="translate(143.03927734375 57) " fill="#FFFFFF" stroke="#FFFFFF" stroke-width="0.099" data-glyph-w="71.519638671875" data-glyph-h="67.85345703125" data-glyph-ascender="55.661948242187506" data-glyph-descender="-12.191508789062501" data-kerning="0"></path><path d="M47.66-11.93L47.66-47.66L59.59-47.66L59.59 11.93L47.66 11.93L47.66 0L35.76 0L35.76-11.93L47.66-11.93ZM11.93-47.66L11.93-35.76L23.83-35.76L23.83-23.83L11.93-23.83L11.93 11.93L0 11.93L0-47.66L11.93-47.66ZM23.83-11.93L23.83-23.83L35.76-23.83L35.76-11.93L23.83-11.93Z" transform="translate(214.55891601562502 57) " fill="#FFFFFF" stroke="#FFFFFF" stroke-width="0.099" data-glyph-w="71.519638671875" data-glyph-h="67.85345703125" data-glyph-ascender="55.661948242187506" data-glyph-descender="-12.191508789062501" data-kerning="0"></path><path d="M0-35.76L0-47.66L59.59-47.66L59.59-35.76L35.76-35.76L35.76 11.93L23.83 11.93L23.83-35.76L0-35.76Z" transform="translate(286.0785546875 57) " fill="#FFFFFF" stroke="#FFFFFF" stroke-width="0.099" data-glyph-w="71.519638671875" data-glyph-h="67.85345703125" data-glyph-ascender="55.661948242187506" data-glyph-descender="-12.191508789062501" data-kerning="0"></path><path d="M0-35.76L0-47.66L59.59-47.66L59.59-35.76L35.76-35.76L35.76 11.93L23.83 11.93L23.83-35.76L0-35.76Z" transform="translate(357.598193359375 57) " fill="#FFFFFF" stroke="#FFFFFF" stroke-width="0.099" data-glyph-w="71.519638671875" data-glyph-h="67.85345703125" data-glyph-ascender="55.661948242187506" data-glyph-descender="-12.191508789062501" data-kerning="0"></path><path d="M47.66-23.83L47.66-35.76L59.59-35.76L59.59-23.83L47.66-23.83ZM59.59 0L59.59 11.93L47.66 11.93L47.66 0L59.59 0ZM35.76 0L35.76-11.93L11.93-11.93L11.93 11.93L0 11.93L0-47.66L47.66-47.66L47.66-35.76L11.93-35.76L11.93-23.83L47.66-23.83L47.66 0L35.76 0Z" transform="translate(429.11783203125 57) " fill="#FFFFFF" stroke="#FFFFFF" stroke-width="0.099" data-glyph-w="71.519638671875" data-glyph-h="67.85345703125" data-glyph-ascender="55.661948242187506" data-glyph-descender="-12.191508789062501" data-kerning="0"></path><path d="M59.59-47.66L59.59-35.76L11.93-35.76L11.93-23.83L47.66-23.83L47.66-11.93L11.93-11.93L11.93 0L59.59 0L59.59 11.93L0 11.93L0-47.66L59.59-47.66Z" transform="translate(500.63747070312496 57) " fill="#FFFFFF" stroke="#FFFFFF" stroke-width="0.099" data-glyph-w="71.519638671875" data-glyph-h="67.85345703125" data-glyph-ascender="55.661948242187506" data-glyph-descender="-12.191508789062501" data-kerning="0"></path><path d="M11.93-47.66L11.93-23.83L35.76-23.83L35.76-11.93L11.93-11.93L11.93 11.93L0 11.93L0-47.66L11.93-47.66ZM47.66-11.93L47.66 0L35.76 0L35.76-11.93L47.66-11.93ZM59.59 0L59.59 11.93L47.66 11.93L47.66 0L59.59 0ZM47.66-47.66L59.59-47.66L59.59-35.76L47.66-35.76L47.66-47.66ZM35.76-35.76L47.66-35.76L47.66-23.83L35.76-23.83L35.76-35.76Z" transform="translate(572.157109375 57) " fill="#FFFFFF" stroke="#FFFFFF" stroke-width="0.099" data-glyph-w="71.519638671875" data-glyph-h="67.85345703125" data-glyph-ascender="55.661948242187506" data-glyph-descender="-12.191508789062501" data-kerning="0"></path></g></svg>
                </g>
              </g>
              <g id="shape_KJOWHMbzaY" ref="shape_KJOWHMbzaY" key="shape_KJOWHMbzaY" mask="">
                <g transform="translate(54.63285793969385,192.97086307252732) rotate(0,216.2962656887173,147.89733510562667) scale(1,1)" style="opacity: 1;mix-blend-mode: undefined;" filter="">
                  <!--普通元素-->
                  <svg xmlns="http://www.w3.org/2000/svg" version="1.1" xmlns:xlink="http://www.w3.org/1999/xlink" width="432.5925313774346" height="295.79467021125333" viewBox="0 0 607.156905206064 415.15690520606404" data-ligature="true" data-parent="shape_KJOWHMbzaY"><g data-role="text" data-width="260.59281694394" data-height="69" transform="translate(173.07845260303202, 173.07845260303202)"><path d="M51.52-0.75L51.52-31.33L44.59-31.33L44.59-2.71C44.59-1.62 43.84-0.87 42.69-0.81C40.15-0.63 37.33-0.81 34.56-1.38L36.11 4.62C39.23 5.19 42.34 5.37 45.23 5.19C48.63 4.96 51.52 2.48 51.52-0.75ZM39.92-5.65L39.92-28.73L33.29-28.73L33.29-5.65ZM43.15-40.09L44.94-46.15L38.02-46.15L36.17-40.09L22.61-40.09L20.77-46.15L13.85-46.15L15.63-40.09L3.35-40.09L3.92-34.09L54.40-34.09L54.40-40.09ZM22.10-5.83L22.10-1.90C22.10-0.92 21.35-0.29 20.31-0.23C18.81-0.17 17.02-0.35 15.00-0.81L16.56 4.90C18.75 5.42 21.06 5.60 23.19 5.48C26.31 5.31 28.84 3.06 28.84 0.12L28.84-26.71C28.84-29.48 27.00-31.33 24.23-31.33L10.96-31.33C8.19-31.33 6.35-29.48 6.35-26.71L6.35 5.77L13.10 5.77L13.10-5.83ZM22.10-11.36L13.10-11.36L13.10-15.69L22.10-15.69ZM22.10-21.23L13.10-21.23L13.10-24.69C13.10-25.27 13.38-25.56 13.96-25.56L21.23-25.56C21.81-25.56 22.10-25.27 22.10-24.69Z" transform="translate(0 51) " fill="rgb(255, 255, 255)" stroke="rgb(255, 255, 255)" stroke-width="0.096" data-glyph-w="67.6344342074352" data-glyph-h="69.34338" data-glyph-ascender="51.86331" data-glyph-descender="-17.480069999999998" data-kerning="0"></path><path d="M11.60-9.17L9.69-29.88L4.15-29.88L6.06-9.17ZM44.71 0.40L44.71-13.10L46.33-13.10C46.84-13.10 47.13-12.86 47.13-12.29L47.13-0.92C47.13-0.12 46.73 0.35 45.81 0.40ZM41.48 1.85L42.11 5.13C44.31 5.60 46.73 5.83 49.27 5.77C51.98 5.71 53.59 4.38 53.59 1.33L53.59-14.25C53.59-17.36 52.15-18.86 48.98-18.86L38.31-18.86L39.23-21.86L54.81-21.86L54.81-27.63L21.23-27.63L21.81-21.86L32.94-21.86L31.96-18.86L26.94-18.86C23.77-18.86 22.33-17.36 22.33-14.25L22.33 5.77L28.79 5.77L28.79-12.29C28.79-12.81 29.02-13.10 29.59-13.10L31.21-13.10L31.21 3.46L36.75 3.46L36.75-13.10L39.17-13.10L39.17 1.85ZM40.96-36.23L40.96-46.15L34.38-46.15L34.38-36.23L30.52-36.23C29.94-36.23 29.65-36.52 29.65-37.09L29.65-43.84L23.19-43.84L23.19-34.96C23.19-31.96 24.69-30.46 27.86-30.46L47.48-30.46C50.59-30.46 52.15-31.96 52.15-34.96L52.15-43.84L45.69-43.84L45.69-37.09C45.69-36.52 45.40-36.23 44.77-36.23ZM17.42-6.29L20.31-30.34L14.77-30.34L11.88-5.37L2.48-3.81L3.58 2.08L21.17-1.15L21.17-6.92ZM15.29-38.48L15.29-46.15L9.17-46.15L9.17-38.48L2.31-38.48L2.88-32.71L21.06-32.71L21.06-38.48Z" transform="translate(67.6344342074352 51) " fill="rgb(255, 255, 255)" stroke="rgb(255, 255, 255)" stroke-width="0.096" data-glyph-w="67.6344342074352" data-glyph-h="69.34338" data-glyph-ascender="51.86331" data-glyph-descender="-17.480069999999998" data-kerning="0"></path><path d="M15.92-10.04L42.11-10.04C42.81-10.04 43.15-9.69 43.15-9.06L43.15-2.31C43.15-1.67 42.81-1.38 42.11-1.38L15.92-1.38C15.23-1.38 14.88-1.67 14.88-2.31L14.88-9.06C14.88-9.69 15.23-10.04 15.92-10.04ZM42.98-35.54L54.57-35.54L54.57-41.31L42.98-41.31L42.98-46.15L36.00-46.15L36.00-41.31L21.46-41.31L21.46-46.09L14.60-46.09L14.60-41.31L3.00-41.31L3.58-35.54L14.60-35.54L14.60-31.15L21.46-31.15L21.46-35.54L36.00-35.54L36.00-31.15L42.98-31.15ZM32.19-15.75L32.19-21.00L54.57-21.00L54.57-26.88L32.19-26.88L32.19-32.88L25.38-32.88L25.38-26.88L2.88-26.88L3.46-21.00L25.38-21.00L25.38-15.75L13.38-15.75C10.10-15.75 7.96-13.73 7.96-10.61L7.96-0.63C7.96 2.42 10.10 4.50 13.38 4.50L44.65 4.50C47.88 4.50 50.07 2.42 50.07-0.63L50.07-10.61C50.07-13.73 47.88-15.75 44.65-15.75Z" transform="translate(135.2688684148704 51) " fill="rgb(255, 255, 255)" stroke="rgb(255, 255, 255)" stroke-width="0.096" data-glyph-w="67.6344342074352" data-glyph-h="69.34338" data-glyph-ascender="51.86331" data-glyph-descender="-17.480069999999998" data-kerning="0"></path><path d="M47.08-11.54L53.88-14.77L53.88-21.52L45.11-16.90C44.42-19.33 44.02-21.98 43.73-24.92C46.96-25.15 48.86-25.79 53.31-26.71L53.31-32.59C51.92-32.31 50.77-32.02 49.73-31.79C46.84-31.09 44.77-30.58 40.21-30.58L32.31-30.58C28.96-30.58 27.35-28.61 27.35-25.33L27.35-7.62C27.35-4.27 27.23-2.71 26.48-0.69L24.86-0.23L25.85 5.83L41.08 1.56L41.08-5.02L33.29-2.71C33.81-4.38 34.04-6.29 34.04-9.12L34.04-23.88C34.04-24.40 34.38-24.81 34.90-24.81L37.67-24.81C38.71-11.13 42.58-2.13 54.29 5.42L56.07-1.67C51.92-4.44 49.04-7.62 47.08-11.54ZM35.88-41.59C36.23-42.98 36.52-44.54 36.69-46.15L30.06-46.15C29.19-41.08 27.35-37.61 24.23-35.13L26.08-28.04C29.42-30.40 31.84-32.88 33.58-35.83L53.94-35.83L53.94-41.59ZM17.19-39.46L17.19-46.15L10.61-46.15L10.61-39.46L2.88-39.46L3.46-33.69L6.23-33.69L6.23-25.10C6.23-11.02 5.31-4.38 1.10 5.02L7.79 5.02C12.06-4.15 12.52-9.75 12.58-22.56L15.69-22.56C16.21-22.56 16.56-22.21 16.56-21.69C16.96-15.63 16.85-8.48 16.33-2.31C16.27-1.21 15.52-0.69 14.48-0.69C13.27-0.69 12.35-0.81 11.31-1.21L12.86 4.56C14.25 4.96 15.46 5.13 17.02 5.13C20.08 5.13 22.44 2.71 22.61-0.23C23.19-7.96 23.31-15.92 22.79-23.48C22.61-26.25 20.94-28.10 18.17-28.10L12.58-28.10L12.58-33.69L23.77-33.69L23.77-39.46Z" transform="translate(202.9033026223056 51) " fill="rgb(255, 255, 255)" stroke="rgb(255, 255, 255)" stroke-width="0.096" data-glyph-w="67.6344342074352" data-glyph-h="69.34338" data-glyph-ascender="51.86331" data-glyph-descender="-17.480069999999998" data-kerning="0"></path></g></svg>
                </g>
              </g>
              <g id="shape_3N6x17HIWW" ref="shape_3N6x17HIWW" key="shape_3N6x17HIWW" mask="">
                <g transform="translate(172.25929708706428,234.5509361435478) rotate(0,10.67745230163956,10.67745230163956) scale(1,1)" style="opacity: 1;mix-blend-mode: undefined;" filter="">
                  <!--普通元素-->
                  <svg id="oXCYCMmFJ4" data-name="图层 1" xmlns="http://www.w3.org/2000/svg" viewBox="0 0 21.35490460327912 21.35490460327912" width="21.35490460327912" height="21.35490460327912" class="style-removed" preserveAspectRatio="none" data-parent="shape_3N6x17HIWW"><title>未标题-3</title><rect width="21.35490460327912" height="21.35490460327912" class="radius-elem" x="0" y="0" fill="#6adfff" rx="0" ry="0" stroke-width="0"></rect></svg>
                </g>
              </g>
              <g id="shape_cYXMsUlcuH" ref="shape_cYXMsUlcuH" key="shape_cYXMsUlcuH" mask="">
                <g transform="translate(160,255.90584074682408) rotate(0,6.129648543533928,6.129648543533928) scale(1,1)" style="opacity: 1;mix-blend-mode: undefined;" filter="">
                  <!--普通元素-->
                  <svg id="RRm9n8MHgk" data-name="图层 1" xmlns="http://www.w3.org/2000/svg" viewBox="0 0 12.259297087067855 12.259297087067855" width="12.259297087067855" height="12.259297087067855" class="style-removed" preserveAspectRatio="none" data-parent="shape_cYXMsUlcuH"><title>未标题-3</title><rect width="12.259297087067855" height="12.259297087067855" class="radius-elem" x="0" y="0" fill="#6adfff" rx="0" ry="0" stroke-width="0"></rect></svg>
                </g>
              </g>
    </svg>